<svg xmlns="http://www.w3.org/2000/svg" viewBox="0 0 130 70" width="130" height="70">
  <defs>
    <filter id="socketBullGlowR" x="-10%" y="-10%" width="120%" height="120%">
      <feDropShadow dx="0" dy="1" stdDeviation="1.5" flood-color="#000000" flood-opacity="0.6"/>
    </filter>
  </defs>
  <g filter="url(#socketBullGlowR)">
    <!-- Hollow archaeological stone contour - Boğa Target Socket -->
    <!-- Majestic Forward-Curving Horns -->
    <path d="M 34 20 Q 28 5 18 7 Q 25 15 32 23" fill="none" stroke="#FDE68A" stroke-width="2" stroke-linecap="round" opacity="0.95"/>
    <path d="M 37 20 Q 34 8 26 10 Q 32 16 36 24" fill="none" stroke="#FDE68A" stroke-width="1.8" stroke-linecap="round" opacity="0.95"/>

    <!-- Muscular Body Contour with Prominent Dorsal Hump and Sturdy Legs -->
    <path d="M 34 22 Q 46 13 58 14 Q 76 17 94 21 Q 106 23 110 32 Q 110 40 106 50 L 104 66 L 98 66 L 100 50 L 94 66 L 88 66 L 91 50 Q 78 52 64 51 Q 50 51 46 44 L 43 66 L 37 66 L 41 46 L 35 66 L 29 66 L 35 44 Q 38 46 24 41 L 14 34 L 18 28 L 32 22 Z" fill="none" stroke="#FDE68A" stroke-width="2" stroke-linejoin="round" stroke-linecap="round" opacity="0.95"/>

    <!-- Slender Tail Swinging with Tuft -->
    <path d="M 110 33 Q 118 44 115 57 L 118 63 L 113 61 Z" fill="none" stroke="#FDE68A" stroke-width="1.8" stroke-linejoin="round" stroke-linecap="round" opacity="0.95"/>

    <!-- Eye Detail -->
    <circle cx="25" cy="30" r="1.3" fill="none" stroke="#FDE68A" stroke-width="1.2"/>
  </g>
</svg>
