<svg xmlns="http://www.w3.org/2000/svg" viewBox="0 0 130 75" width="130" height="75">
  <defs>
    <filter id="socketSnakeGlowR" x="-10%" y="-10%" width="120%" height="120%">
      <feDropShadow dx="0" dy="1" stdDeviation="1.5" flood-color="#000000" flood-opacity="0.6"/>
    </filter>
  </defs>
  <g filter="url(#socketSnakeGlowR)">
    <!-- Subtle depth tint letting natural stone texture show through -->
    <!-- Sinuous Undulating Archaic Göbeklitepe Serpent Facing Left -->
    <path d="M 16 40 L 26 31 Q 42 16 60 24 Q 78 32 90 48 Q 102 64 114 50 Q 122 36 124 22 Q 116 36 108 46 Q 96 60 84 44 Q 72 28 56 21 Q 40 14 26 38 L 20 43 Z" fill="rgba(0,0,0,0.12)" stroke="#FDE68A" stroke-width="2" stroke-linejoin="round" stroke-linecap="round" opacity="0.95"/>

    <!-- Archaic Abdominal Ribbing / Segments Characteristic of Göbeklitepe Reliefs -->
    <path d="M 35 22 L 35 30 M 52 23 L 50 31 M 70 32 L 67 41 M 86 48 L 82 56 M 104 53 L 102 61" stroke="#FDE68A" stroke-width="1.8" stroke-linecap="round" opacity="0.85"/>

    <!-- Eye Detail -->
    <circle cx="23" cy="35" r="1.3" fill="#FDE68A"/>
  </g>
</svg>
